<?xml version="1.0" encoding="iso-8859-1"?>
<!-- Generator: Adobe Illustrator 18.0.0, SVG Export Plug-In . SVG Version: 6.00 Build 0)  -->
<!DOCTYPE svg PUBLIC "-//W3C//DTD SVG 1.1//EN" "http://www.w3.org/Graphics/SVG/1.1/DTD/svg11.dtd">
<svg version="1.1" id="Capa_1" xmlns="http://www.w3.org/2000/svg" xmlns:xlink="http://www.w3.org/1999/xlink" x="0px" y="0px"
	 viewBox="0 0 59 59" style="enable-background:new 0 0 59 59;" xml:space="preserve">
<path d="M56,16.5v-13H46v-3H28v8H14v8h-3v-8c0-0.553-0.448-1-1-1H7.858c-0.447-1.72-2-3-3.858-3c-2.206,0-4,1.794-4,4s1.794,4,4,4
	c1.858,0,3.411-1.28,3.858-3H9v7v1v24v1v6c0,0.553,0.448,1,1,1h7.031C15.806,50.412,15,51.859,15,53.5c0,2.757,2.243,5,5,5
	s5-2.243,5-5c0-1.641-0.806-3.088-2.031-4h18.062C39.806,50.412,39,51.859,39,53.5c0,2.757,2.243,5,5,5s5-2.243,5-5
	c0-1.641-0.806-3.088-2.031-4H53c0.552,0,1-0.447,1-1s-0.448-1-1-1H11v-5h48v-26H56z M4,10.5c-1.103,0-2-0.897-2-2s0.897-2,2-2
	c0.737,0,1.375,0.405,1.722,1H5c-0.552,0-1,0.447-1,1s0.448,1,1,1h0.722C5.375,10.095,4.737,10.5,4,10.5z M20,56.5
	c-1.654,0-3-1.346-3-3s1.346-3,3-3s3,1.346,3,3S21.654,56.5,20,56.5z M44,56.5c-1.654,0-3-1.346-3-3s1.346-3,3-3s3,1.346,3,3
	S45.654,56.5,44,56.5z M11,26.5h6v6h-6V26.5z M19,26.5h6v6h-6V26.5z M25,18.5v6h-6v-6H25z M28,18.5h2h3v6h-6v-6H28z M41,18.5v6h-6
	v-6H41z M44,18.5h2h3v6h-6v-6H44z M35,26.5h6v6h-6V26.5z M33,32.5h-6v-6h6V32.5z M25,34.5v6h-6v-6H25z M27,34.5h6v6h-6V34.5z
	 M35,34.5h6v6h-6V34.5z M43,34.5h6v6h-6V34.5z M43,32.5v-6h6v6H43z M51,26.5h6v6h-6V26.5z M57,18.5v6h-6v-6h5H57z M54,5.5v11h-8v-11
	H54z M30,2.5h14v1v13H30v-8V2.5z M16,10.5h12v6H16V10.5z M17,18.5v6h-6v-6h3H17z M11,34.5h6v6h-6V34.5z M51,40.5v-6h6v6H51z"/>
<g>
</g>
<g>
</g>
<g>
</g>
<g>
</g>
<g>
</g>
<g>
</g>
<g>
</g>
<g>
</g>
<g>
</g>
<g>
</g>
<g>
</g>
<g>
</g>
<g>
</g>
<g>
</g>
<g>
</g>
</svg>
